<?xml version="1.0" standalone="no"?>
<!DOCTYPE svg PUBLIC "-//W3C//DTD SVG 20010904//EN"
 "http://www.w3.org/TR/2001/REC-SVG-20010904/DTD/svg10.dtd">
<svg version="1.0" xmlns="http://www.w3.org/2000/svg"
 width="512.000000pt" height="512.000000pt" viewBox="0 0 512.000000 512.000000"
 preserveAspectRatio="xMidYMid meet">
<metadata>
Created by potrace 1.14, written by Peter Selinger 2001-2017
</metadata>
<g transform="translate(0.000000,512.000000) scale(0.100000,-0.100000)"
fill="#000000" stroke="none">
<path d="M2379 5116 c-2 -2 -40 -6 -83 -10 -44 -4 -82 -9 -86 -11 -3 -2 -31
-6 -61 -10 -30 -3 -61 -7 -69 -9 -8 -2 -34 -7 -57 -11 -24 -4 -43 -12 -43 -17
0 -5 -4 -6 -10 -3 -5 3 -33 -1 -62 -10 -29 -8 -53 -15 -53 -13 0 5 -202 -65
-212 -74 -7 -6 -13 -7 -13 -3 0 4 -11 0 -25 -9 -14 -9 -25 -14 -25 -11 0 3
-26 -8 -57 -24 -31 -16 -61 -27 -65 -25 -4 3 -8 1 -8 -5 0 -5 -10 -13 -22 -16
-13 -4 -44 -20 -70 -36 -27 -16 -48 -25 -48 -21 0 4 -4 2 -8 -4 -4 -6 -27 -22
-52 -35 -100 -54 -297 -199 -404 -298 -92 -85 -186 -182 -186 -192 0 -6 -4 -7
-10 -4 -5 3 -10 2 -10 -3 0 -5 -9 -20 -21 -33 -80 -94 -129 -157 -129 -167 0
-6 -4 -12 -9 -14 -12 -4 -121 -173 -121 -187 0 -6 -4 -11 -8 -11 -9 0 -118
-211 -114 -222 1 -5 -2 -8 -8 -8 -5 0 -10 -9 -10 -20 0 -11 -5 -20 -12 -20 -6
0 -9 -3 -5 -6 3 -4 0 -19 -9 -35 -8 -16 -11 -29 -7 -29 5 0 2 -4 -4 -8 -7 -4
-14 -17 -16 -27 -1 -11 -6 -26 -10 -32 -5 -7 -10 -21 -12 -30 -2 -10 -11 -36
-19 -58 -8 -22 -15 -49 -16 -60 0 -12 -4 -25 -9 -30 -9 -10 -39 -121 -48 -180
-5 -35 -8 -47 -17 -95 -12 -66 -16 -95 -23 -165 -10 -90 -9 -464 0 -535 18
-132 33 -222 54 -310 8 -36 16 -69 17 -75 6 -24 27 -101 33 -115 3 -8 8 -23
10 -33 1 -10 10 -31 18 -46 8 -16 11 -31 8 -35 -4 -3 -1 -6 6 -6 6 0 11 -6 10
-12 -2 -7 5 -31 15 -53 10 -22 26 -62 37 -88 10 -26 26 -59 35 -72 9 -14 12
-25 8 -25 -5 0 -4 -4 2 -8 6 -4 21 -27 34 -52 58 -119 187 -314 281 -425 99
-117 307 -325 327 -325 6 0 12 -4 12 -9 0 -23 297 -228 420 -291 25 -12 48
-27 51 -32 3 -5 9 -9 13 -8 4 1 30 -10 59 -24 29 -13 59 -26 67 -28 8 -2 21
-9 28 -15 12 -12 34 -17 55 -14 4 0 7 -4 7 -9 0 -6 8 -10 18 -10 10 0 23 -5
30 -12 7 -7 12 -9 12 -5 0 3 20 -2 45 -13 25 -11 45 -17 45 -13 0 3 6 1 13 -5
7 -6 24 -12 37 -14 14 -2 30 -6 35 -10 10 -5 194 -49 225 -53 8 -1 31 -5 50
-8 134 -24 236 -32 435 -32 99 0 212 3 250 8 157 17 136 14 289 46 93 20 223
54 256 68 8 4 20 8 25 8 12 2 40 13 82 31 17 8 33 14 36 14 3 0 16 4 29 9 13
5 27 9 32 9 5 0 12 4 15 9 9 11 79 43 96 43 8 0 15 4 15 9 0 10 27 21 44 20 5
0 12 5 17 13 5 7 12 13 16 13 8 0 227 130 248 147 6 4 37 28 70 53 143 105
365 311 365 338 0 4 5 5 10 2 6 -3 10 -2 10 3 0 5 12 22 26 38 51 58 61 70
106 129 71 94 170 251 224 355 27 52 49 97 49 100 1 3 10 23 22 45 11 22 21
42 22 45 1 3 4 15 7 28 4 12 10 22 15 22 5 0 8 3 7 8 -1 4 9 39 22 77 13 39
24 72 25 75 0 3 3 10 6 15 4 6 10 26 15 45 11 49 11 49 14 55 3 6 4 9 18 75 7
30 15 66 18 80 15 64 23 109 29 155 3 28 8 66 11 85 9 67 11 446 3 520 -10
100 -18 160 -24 190 -3 14 -8 41 -11 60 -3 19 -10 40 -15 46 -5 6 -6 13 -3 16
2 3 -5 41 -16 84 -12 44 -25 93 -30 109 -4 17 -17 56 -28 88 -12 31 -19 57
-16 57 3 0 -2 7 -10 16 -9 8 -16 26 -16 40 0 13 -5 24 -11 24 -5 0 -7 4 -4 10
3 6 1 10 -4 10 -6 0 -10 3 -9 8 3 15 -15 62 -24 62 -5 0 -6 5 -3 10 3 6 1 10
-4 10 -6 0 -11 7 -11 15 0 9 -7 27 -16 40 -9 14 -12 25 -8 25 5 0 4 4 -2 8 -7
4 -20 23 -30 43 -46 89 -71 130 -135 224 -37 55 -77 110 -88 122 -12 12 -21
25 -21 29 0 4 -11 17 -25 30 -14 13 -25 26 -25 30 0 13 -207 223 -285 289 -33
28 -62 53 -65 56 -3 3 -43 34 -90 68 -47 34 -92 68 -100 74 -8 7 -17 13 -20
13 -3 0 -31 17 -62 37 -32 20 -81 48 -110 63 -29 15 -54 30 -56 35 -2 5 -11 9
-21 9 -9 0 -27 7 -39 16 -12 8 -22 12 -22 7 0 -4 -4 -2 -9 5 -4 7 -14 15 -22
16 -13 3 -63 23 -114 46 -36 16 -170 63 -185 64 -9 1 -20 4 -25 8 -6 3 -23 9
-40 13 -16 5 -34 9 -40 11 -5 2 -19 5 -30 8 -129 30 -169 37 -186 33 -10 -3
-17 -1 -13 4 3 5 -7 9 -23 10 -15 0 -37 2 -48 4 -63 12 -131 16 -321 20 -116
3 -213 3 -215 1z"/>
</g>
</svg>
